<?xml version="1.0" encoding="UTF-8"?>
<svg id="Layer_1" xmlns="http://www.w3.org/2000/svg" version="1.1" viewBox="0 0 249.1 58.2">
  <!-- Generator: Adobe Illustrator 29.5.1, SVG Export Plug-In . SVG Version: 2.1.0 Build 141)  -->
  <defs>
    <style>
      .st0 {
        fill: #fff;
      }
    </style>
  </defs>
  <path class="st0" d="M28.4,14.5c-.6-.1-1.1-.2-1.7-.2-1.6,0-2.7.5-3.3,1.5-.6,1-.9,2.2-.9,3.7v.5h7.8v11.6h-7.8v25.3H6.3v-25.3H0v-11.6h6.3v-.8c0-2.3.3-4.5.8-6.6s1.5-4,2.8-5.6,3.1-2.9,5.3-3.8,5-1.4,8.4-1.4,2.3,0,3.7.2c1.4.2,2.6.4,3.6.8l-1.1,12.1c-.4-.2-.9-.3-1.5-.5"/>
  <path class="st0" d="M36.3,20h15.6v4.2h0c.8-1.5,2-2.7,3.5-3.7,1.6-1,3.4-1.5,5.5-1.5s2.3.1,3.1.3l-1.3,13.7c-.5,0-1.1-.2-1.7-.3-.6,0-1.2,0-1.7,0-2.1,0-3.8.6-5,1.8-1.3,1.2-1.9,2.7-1.9,4.5v17.9h-16.2s0-36.8,0-36.8Z"/>
  <path class="st0" d="M87.4,32.3c-1.8,0-3.2.6-4.3,1.8-1.1,1.2-1.6,2.6-1.6,4.3s.6,3.2,1.7,4.4,2.6,1.8,4.3,1.8,3.2-.6,4.3-1.8c1.1-1.2,1.7-2.7,1.7-4.4s-.6-3.1-1.7-4.3-2.6-1.8-4.4-1.8M108.5,38.3c0,3.2-.6,6-1.7,8.5s-2.7,4.6-4.6,6.3-4.2,3-6.7,3.9-5.2,1.3-8,1.3-5.4-.4-7.9-1.3c-2.5-.9-4.8-2.2-6.7-3.9-1.9-1.7-3.4-3.8-4.6-6.3-1.1-2.5-1.7-5.3-1.7-8.5s.6-5.9,1.7-8.4c1.1-2.5,2.7-4.5,4.6-6.2,1.9-1.7,4.1-3,6.7-3.8,2.5-.9,5.2-1.3,7.9-1.3s5.5.4,8,1.3,4.8,2.1,6.7,3.8c1.9,1.7,3.5,3.7,4.6,6.2s1.7,5.2,1.7,8.4"/>
  <path class="st0" d="M228.1,32.3c-1.8,0-3.2.6-4.3,1.8s-1.6,2.6-1.6,4.3.6,3.2,1.7,4.4c1.1,1.2,2.6,1.8,4.3,1.8s3.2-.6,4.3-1.8,1.7-2.7,1.7-4.4-.6-3.1-1.7-4.3c-1.1-1.2-2.6-1.8-4.4-1.8M249.1,38.3c0,3.2-.6,6-1.7,8.5-1.1,2.5-2.7,4.6-4.6,6.3-1.9,1.7-4.2,3-6.7,3.9s-5.2,1.3-8,1.3-5.4-.4-7.9-1.3c-2.5-.9-4.8-2.2-6.7-3.9s-3.4-3.8-4.6-6.3c-1.1-2.5-1.7-5.3-1.7-8.5s.6-5.9,1.7-8.4c1.1-2.5,2.7-4.5,4.6-6.2,1.9-1.7,4.1-3,6.7-3.8,2.5-.9,5.2-1.3,7.9-1.3s5.5.4,8,1.3,4.8,2.1,6.7,3.8c1.9,1.7,3.5,3.7,4.6,6.2s1.7,5.2,1.7,8.4"/>
  <path class="st0" d="M140.8,5.5v16.7h-11.3c-9.6,0-17.3,7.8-17.3,17.3s7.3,16.9,16.5,17.3h27V5.5h-14.9Z"/>
  <path class="st0" d="M175.8,4.6l5.2,15.8-10.7,3.5c-9.1,3-14,12.8-11.1,21.9,2.9,8.8,12.2,13.7,21,11.3h0l13.9-4.6,11.7-3.8-10.8-32.9L189.8,0l-14,4.6h0Z"/>
</svg>