<?xml version="1.0" encoding="utf-8"?>
<!-- Generator: Adobe Illustrator 21.0.0, SVG Export Plug-In . SVG Version: 6.00 Build 0)  -->
<svg version="1.1" id="Layer_1" xmlns="http://www.w3.org/2000/svg" xmlns:xlink="http://www.w3.org/1999/xlink" x="0px" y="0px"
	 viewBox="0 0 338 78" style="enable-background:new 0 0 338 78;" xml:space="preserve">
<style type="text/css">
	.st0{fill:#6DBD28;}
</style>
<g>
	<path class="st0" d="M36.5,18.6c-0.7-0.1-1.4-0.2-2.2-0.2c-2,0-3.5,0.6-4.3,1.9c-0.8,1.3-1.2,2.9-1.2,4.8v0.6h10v14.9h-10V73H8.1
		V40.5H0V25.7h8.1v-1.1c0-2.9,0.3-5.8,1-8.5c0.7-2.7,1.9-5.1,3.6-7.1c1.7-2.1,4-3.7,6.8-4.9c2.9-1.2,6.5-1.8,10.8-1.8
		c1.4,0,3,0.1,4.8,0.3c1.8,0.2,3.4,0.6,4.6,1l-1.4,15.6C37.9,19,37.3,18.8,36.5,18.6"/>
	<path class="st0" d="M46.6,25.7h20v5.4h0.2c1-1.9,2.5-3.5,4.5-4.8c2-1.3,4.4-1.9,7.1-1.9c1.6,0,2.9,0.1,4,0.4l-1.6,17.6
		c-0.7-0.2-1.4-0.3-2.2-0.4C77.7,42,77,42,76.3,42c-2.7,0-4.9,0.8-6.5,2.3c-1.6,1.6-2.4,3.5-2.4,5.8V73H46.6V25.7z"/>
	<path class="st0" d="M139.3,49.2c0,4.1-0.7,7.7-2.2,10.9c-1.5,3.2-3.5,5.9-5.9,8c-2.5,2.2-5.4,3.9-8.6,5c-3.3,1.1-6.7,1.7-10.3,1.7
		c-3.5,0-6.9-0.6-10.2-1.7c-3.3-1.1-6.1-2.8-8.6-5c-2.5-2.2-4.4-4.9-5.9-8c-1.5-3.2-2.2-6.8-2.2-10.9c0-4,0.7-7.6,2.2-10.8
		c1.5-3.1,3.4-5.8,5.9-8c2.4-2.2,5.3-3.8,8.6-4.9c3.3-1.1,6.7-1.7,10.2-1.7c3.6,0,7,0.5,10.3,1.7c3.3,1.1,6.1,2.7,8.6,4.9
		c2.5,2.2,4.5,4.8,5.9,8C138.6,41.6,139.3,45.2,139.3,49.2 M112.3,41.4c-2.3,0-4.1,0.8-5.5,2.3c-1.4,1.6-2.1,3.4-2.1,5.5
		c0,2.2,0.7,4.1,2.2,5.7c1.4,1.6,3.3,2.3,5.6,2.3c2.3,0,4.1-0.8,5.6-2.3c1.4-1.6,2.2-3.4,2.2-5.7c0-2.1-0.7-3.9-2.2-5.5
		C116.4,42.2,114.5,41.4,112.3,41.4z"/>
	<path class="st0" d="M320.1,49.2c0,4.1-0.7,7.7-2.2,10.9c-1.5,3.2-3.4,5.9-6,8c-2.5,2.2-5.4,3.9-8.6,5c-3.3,1.1-6.7,1.7-10.3,1.7
		c-3.5,0-6.9-0.6-10.2-1.7c-3.3-1.1-6.1-2.8-8.6-5c-2.5-2.2-4.4-4.9-5.9-8c-1.5-3.2-2.2-6.8-2.2-10.9c0-4,0.7-7.6,2.2-10.8
		c1.5-3.1,3.4-5.8,5.9-8c2.5-2.2,5.3-3.8,8.6-4.9c3.3-1.1,6.7-1.7,10.2-1.7c3.6,0,7,0.5,10.3,1.7c3.3,1.1,6.2,2.7,8.6,4.9
		c2.5,2.2,4.5,4.8,6,8C319.3,41.6,320.1,45.2,320.1,49.2 M293,41.4c-2.3,0-4.1,0.8-5.5,2.3c-1.4,1.6-2.1,3.4-2.1,5.5
		c0,2.2,0.7,4.1,2.2,5.7c1.4,1.6,3.3,2.3,5.6,2.3c2.3,0,4.1-0.8,5.6-2.3c1.4-1.6,2.2-3.4,2.2-5.7c0-2.1-0.7-3.9-2.2-5.5
		C297.1,42.2,295.3,41.4,293,41.4z"/>
	<path class="st0" d="M180.9,7.1v21.4h-14.5c-12.3,0-22.3,10-22.3,22.3c0,11.9,9.4,21.7,21.1,22.2v0h18.8h15.8V28.5V7.1H180.9z"/>
	<path class="st0" d="M225.9,5.9l6.7,20.3l-13.8,4.5c-11.7,3.8-18,16.4-14.2,28.1c3.7,11.3,15.7,17.6,27,14.5l0,0l17.9-5.9l15-4.9
		l-13.9-42.3L243.9,0L225.9,5.9z"/>
	<path class="st0" d="M330.9,73.7c-4.2,0-7.5-3.4-7.5-7.6c0-4.2,3.4-7.5,7.5-7.5c4.2,0,7.6,3.4,7.6,7.5
		C338.4,70.3,335,73.7,330.9,73.7 M330.9,60.1c-3.3,0-6,2.7-6,6c0,3.3,2.7,6,6,6c3.3,0,6-2.7,6-6C336.9,62.8,334.2,60.1,330.9,60.1z
		 M332.2,69.7l-1.6-2.9H330v2.9h-1.8v-7.4h2.8c0.4,0,0.7,0,1,0.1c0.3,0.1,0.6,0.2,0.9,0.4c0.3,0.2,0.5,0.4,0.6,0.7
		c0.2,0.3,0.2,0.6,0.2,1.1c0,0.5-0.2,0.9-0.4,1.3c-0.3,0.3-0.7,0.6-1.1,0.7l1.9,3.2H332.2z M332.1,64.6c0-0.2,0-0.3-0.1-0.4
		c-0.1-0.1-0.2-0.2-0.3-0.2c-0.1-0.1-0.2-0.1-0.4-0.1c-0.2,0-0.3,0-0.4,0h-1v1.7h0.9c0.2,0,0.3,0,0.5-0.1c0.2,0,0.3-0.1,0.4-0.1
		c0.1,0,0.2-0.1,0.3-0.3C332.1,64.9,332.1,64.7,332.1,64.6z"/>
</g>
</svg>
